<svg lang="ko" data-locale="ko" xmlns="http://www.w3.org/2000/svg" width="1080" height="820" viewBox="0 0 1080 820">
  <title>사용자 표현을 실행 가능한 주문 작업으로 좁히는 과정</title>
  <defs>
    <pattern id="paper" width="28" height="28" patternUnits="userSpaceOnUse">
      <circle cx="3" cy="5" r="1" fill="#FFFFFF" opacity="0.20"/>
      <circle cx="20" cy="18" r="0.8" fill="#29305F" opacity="0.035"/>
    </pattern>
    <clipPath id="mascotBubble"><circle cx="935" cy="715" r="89"/></clipPath>
  </defs>
  <rect width="1080" height="820" fill="#EAF6FF"/>
  <g fill="#FFF8EC">
    <circle cx="908" cy="34" r="66"/><circle cx="974" cy="30" r="94"/><circle cx="1058" cy="66" r="70"/>
  </g>
  <g fill="#BDE9DC" opacity="0.78">
    <circle cx="960" cy="77" r="36"/><circle cx="1012" cy="80" r="45"/><circle cx="1070" cy="92" r="36"/>
  </g>
  <path d="M64 58 H118" stroke="#F47F70" stroke-width="7" stroke-linecap="round"/>
  <text x="64" y="116" fill="#292A5A" font-family="Apple SD Gothic Neo, Noto Sans CJK KR, Malgun Gothic, sans-serif" font-size="38" font-weight="700">한 문장에서 실행 가능한 작업으로</text>
  <text x="64" y="157" fill="#4B527C" font-family="Apple SD Gothic Neo, Noto Sans CJK KR, Malgun Gothic, sans-serif" font-size="18">업무 영역을 찾고 구체적 의도로 나눈 뒤 올바른 워크플로로 들어간다</text>
  <g font-family="Apple SD Gothic Neo, Noto Sans CJK KR, Malgun Gothic, sans-serif">
    <text x="96" y="246" fill="#4B527C" font-size="18">사용자 표현</text>
    <text x="302" y="246" fill="#292A5A" font-size="21" font-weight="600">“배송이 사흘째 멈췄어요. 민원을 넣고 환불받고 싶어요.”</text>
    <line x1="302" y1="274" x2="930" y2="274" stroke="#7E8FD5" stroke-width="3" stroke-linecap="round"/>
    <path d="M260 272 V340" stroke="#3E97E8" stroke-width="4" stroke-linecap="round"/>
    <path d="M252 329 L260 341 L268 329" fill="none" stroke="#292A5A" stroke-width="3" stroke-linecap="round" stroke-linejoin="round"/>
    <circle cx="260" cy="272" r="8" fill="#FFDCC2" stroke="#292A5A" stroke-width="2"/>
    <text x="96" y="372" fill="#4B527C" font-size="18">업무 영역</text>
    <text x="302" y="372" fill="#292A5A" font-size="25" font-weight="600">주문 사후 지원</text>
    <line x1="302" y1="400" x2="930" y2="400" stroke="#7E8FD5" stroke-width="3" stroke-linecap="round"/>
    <path d="M260 398 V466" stroke="#3E97E8" stroke-width="4" stroke-linecap="round"/>
    <path d="M252 455 L260 467 L268 455" fill="none" stroke="#292A5A" stroke-width="3" stroke-linecap="round" stroke-linejoin="round"/>
    <circle cx="260" cy="398" r="8" fill="#BDE9DC" stroke="#292A5A" stroke-width="2"/>
    <text x="96" y="498" fill="#4B527C" font-size="18">구체적 의도</text>
    <text x="302" y="498" fill="#292A5A" font-size="25" font-weight="600">배송 이상 + 민원 + 환불 신청</text>
    <line x1="302" y1="526" x2="930" y2="526" stroke="#7E8FD5" stroke-width="3" stroke-linecap="round"/>
    <path d="M260 524 V592" stroke="#3E97E8" stroke-width="4" stroke-linecap="round"/>
    <path d="M252 581 L260 593 L268 581" fill="none" stroke="#292A5A" stroke-width="3" stroke-linecap="round" stroke-linejoin="round"/>
    <circle cx="260" cy="524" r="8" fill="#929FE5" stroke="#292A5A" stroke-width="2"/>
    <text x="96" y="624" fill="#4B527C" font-size="18">실행 순서</text>
    <text x="302" y="624" fill="#3E97E8" font-size="25" font-weight="700">먼저 배송 조회, 다음 환불 판단, 마지막 민원 처리</text>
  </g>
  <line x1="64" y1="696" x2="1016" y2="696" stroke="#7E8FD5" stroke-width="3" stroke-linecap="round"/>
  <text x="64" y="751" fill="#292A5A" font-family="Apple SD Gothic Neo, Noto Sans CJK KR, Malgun Gothic, sans-serif" font-size="20" font-weight="600">잘못된 워크플로에 들어가면 뒤의 실행이 순조로워도 의미가 없다</text>
  <g aria-label="오리지널 캐릭터 윈저우">
    <circle cx="935" cy="715" r="92" fill="#FFDCC2" stroke="#292A5A" stroke-width="3"/>
    <image href="mascot-yunzhou-avatar-v4.png" x="846" y="626" width="178" height="178" preserveAspectRatio="xMidYMid slice" clip-path="url(#mascotBubble)"/>
  </g>
  <rect width="1080" height="820" fill="url(#paper)" pointer-events="none"/>
</svg>
